<?xml version="1.0" standalone="no"?>
<!DOCTYPE svg PUBLIC "-//W3C//DTD SVG 20010904//EN"
 "http://www.w3.org/TR/2001/REC-SVG-20010904/DTD/svg10.dtd">
<svg version="1.0" xmlns="http://www.w3.org/2000/svg"
 width="300.000000pt" height="159.000000pt" viewBox="0 0 300.000000 159.000000"
 preserveAspectRatio="xMidYMid meet">

<g transform="translate(0.000000,159.000000) scale(0.100000,-0.100000)"
fill="#000000" stroke="none">
<path d="M1315 1566 c-257 -59 -480 -250 -570 -490 -54 -144 -65 -301 -33
-458 26 -128 -23 -259 -142 -379 -108 -109 -270 -191 -430 -218 -34 -5 474 -9
1340 -9 1188 0 1385 2 1330 13 -274 56 -480 213 -545 414 -15 46 -16 70 -9
150 4 53 8 152 8 221 0 103 -4 138 -23 200 -81 262 -258 445 -512 531 -83 28
-109 32 -224 35 -86 3 -150 -1 -190 -10z"/>
</g>
</svg>
